<?xml version="1.0" encoding="UTF-8"?>
<!DOCTYPE svg PUBLIC "-//W3C//DTD SVG 1.1//EN" "http://www.w3.org/Graphics/SVG/1.1/DTD/svg11.dtd">
<!-- Creator: CorelDRAW 2018 (64 Bit Versión de evaluación) -->
<svg xmlns="http://www.w3.org/2000/svg" xml:space="preserve" width="80.6052mm" height="56.6783mm" version="1.1" style="shape-rendering:geometricPrecision; text-rendering:geometricPrecision; image-rendering:optimizeQuality; fill-rule:evenodd; clip-rule:evenodd"
viewBox="0 0 5230.27 3677.71"
 xmlns:xlink="http://www.w3.org/1999/xlink">
 <defs>
  <style type="text/css">
   <![CDATA[
    .fil0 {fill:black}
   ]]>
  </style>
 </defs>
 <g id="Capa_x0020_1">
  <metadata id="CorelCorpID_0Corel-Layer"/>
  <path class="fil0" d="M-0 1828.63c0,97.62 21.24,108.49 79.16,166.02l1598.78 1598.78c59.46,59.68 69.75,84.28 171.12,84.28 117.74,0 173.66,-93.61 173.66,-214.53 0,-89.46 -255.42,-311.63 -324.35,-380.55 -86.71,-86.7 -1023.02,-1012.45 -1054.79,-1059.89 101.9,0 4384.94,9.95 4450.36,-3.74 174.23,-36.47 185.79,-309.75 9.43,-359.5 -113.54,-32.03 -1908.45,-14.75 -2069.29,-14.75 -793.42,0 -1586.86,0 -2380.28,0 32.24,-48.15 1101.04,-1106.15 1228.45,-1233.55 75.26,-75.27 140.46,-115.99 140.46,-237.52 0,-99.08 -80.53,-173.68 -194.09,-173.68 -96.2,0 -167.4,100.99 -257.95,191.55l-1486.41 1486.41c-42.44,42.27 -84.28,69.27 -84.28,150.68z"/>
 </g>
</svg>
