<?xml version="1.0" encoding="UTF-8"?>
<!DOCTYPE svg PUBLIC "-//W3C//DTD SVG 1.1//EN" "http://www.w3.org/Graphics/SVG/1.1/DTD/svg11.dtd">
<!-- Creator: CorelDRAW 2018 (64 Bit Versión de evaluación) -->
<svg xmlns="http://www.w3.org/2000/svg" xml:space="preserve" width="110.951mm" height="114.85mm" version="1.1" style="shape-rendering:geometricPrecision; text-rendering:geometricPrecision; image-rendering:optimizeQuality; fill-rule:evenodd; clip-rule:evenodd"
viewBox="0 0 2052.06 2124.18"
 xmlns:xlink="http://www.w3.org/1999/xlink">
 <defs>
  <style type="text/css">
   <![CDATA[
    .fil0 {fill:black}
   ]]>
  </style>
 </defs>
 <g id="Capa_x0020_1">
  <metadata id="CorelCorpID_0Corel-Layer"/>
  <g id="_1198435986304">
   <path class="fil0" d="M-0 0c0,11.53 4.86,32.28 7.19,43.75 4.26,20.95 7.24,44.22 12.01,65l11.6 66.59 135.07 0 30.37 115.35c1.62,5.36 2.74,8.4 3.88,13.89 4.38,21.03 14.94,52.29 19.55,72.86 1.33,5.94 1.99,8.61 3.59,14.17 1.55,5.38 2.17,9.87 3.78,15.17l11.36 41.95c1.29,4.55 2.22,9.79 3.77,15.18l15.42 58.03c19.05,67.04 35.3,134.84 53.76,202.14 1.37,5.01 2.34,9.71 3.66,14.11 1.5,5.03 2.27,10.2 3.83,15.13l26.99 100.96c1.48,5.16 2.18,10.07 3.82,15.13l23.25 86.93c5.28,22.81 12.11,49.87 19.12,72.1l15.4 58.05c1.44,4.57 2.6,10.62 3.69,15.27 -2.42,3.61 -5.44,5.86 -8.61,9.16l-8.14 9.63c-5.62,6.94 -11.02,13.41 -16.42,20.31 -25.98,33.2 -36.42,55.23 -53.72,90.82 -11.35,23.35 -20,64.23 -17.2,90.27 4.24,39.34 13.94,80.38 26.03,118.5 2.85,8.99 6.42,18.39 9.34,27.39 7.95,24.52 20.97,52.49 34.29,74.71 4.51,7.52 9.35,15.44 14.29,22.44 10.27,14.53 20.68,26.19 34.87,37.4 10.21,8.06 13.66,7.64 27.92,7.62l72.28 -0c12.26,-0.04 22.15,1.19 35.54,1.19 144.21,0 287.14,3.59 431.26,3.55 13.04,-0 21.46,1.19 34.36,1.19l72.27 0c12.94,-0.02 22.03,1.19 35.54,1.18l215.63 1.19c24.66,0 46.75,1.19 72.27,1.19 48.68,0 94.17,1.19 143.36,1.18 13.12,0 21.69,1.2 34.36,1.19l72.27 0c13.23,0 23.7,1.25 35.53,1.19l125.61 -0.02c7.98,-0.05 10.75,1.16 17.71,1.25 24,0.3 48.28,-0.05 72.32,-0.05 25.06,0 46.69,1.18 72.27,1.18l0 -199.03c-22.43,0 -41.15,-1.19 -63.98,-1.19l-195.49 0c-22.83,0 -41.82,-1.18 -63.98,-1.18l-130.33 0c-22.8,0 -41.97,-1.19 -63.98,-1.19 -270.59,0 -539.61,-3.55 -810.4,-3.55l-80.6 -1.15c-7.68,0.07 -8.92,0.73 -13.33,-3.26 -37.88,-34.3 -68.22,-77.07 -59.12,-132.03 2.63,-15.89 11.85,-34.38 19.83,-45.32 2.52,-3.45 4.06,-5.91 6.42,-8.98 6.85,-8.91 22.82,-29.29 33.42,-31.74 21.71,-5.01 73.29,-11.52 98.79,-16.14l153.63 -25.27c18.28,-3.78 37.87,-5.61 56.08,-9.08 4.97,-0.95 9.27,-1.82 14.01,-2.58l168.28 -27.21c37.76,-6 74.18,-12.51 111.68,-18.65 37.19,-6.08 75.41,-11.12 112.23,-18.1 19.06,-3.61 36.78,-5.88 56.04,-9.13l279.96 -45.86c18.28,-3.09 37.51,-7.42 55.77,-9.4 10.23,-1.11 18.51,-3.58 27.35,-4.64 10.64,-1.28 19.57,-3.22 28.57,-4.6l195.69 -31.79c10.33,-1.63 17.88,-3.23 28.42,-4.76l41.82 -6.76c28.23,-4.95 15.36,-4.39 18.27,-30.31 0.59,-5.27 0.99,-8.63 0.97,-15.61 -0.02,-7.13 1.19,-8.57 1.27,-15.32l3.68 -93.47c0.58,-5.21 1.04,-8.64 0.99,-15.6 -0.09,-12.02 2.45,-31.15 2.4,-46.18l4.7 -109.04c0.01,-7.12 1.19,-8.59 1.27,-15.31 0.07,-5.49 -0.25,-11.21 -0.09,-16.67l2.08 -29.9c0.74,-5.37 0.03,-10.87 0.32,-16.27l3.51 -78.23c0.08,-6.74 1.28,-8.19 1.27,-15.32 -0.01,-14.68 2.36,-35.83 2.37,-46.2 0.01,-5.53 -0.16,-11.15 -0.09,-16.67 0.08,-6.58 1.2,-7.54 1.28,-14.12l1.09 -32.08c0.07,-6.72 1.27,-8.19 1.27,-15.32 0,-21.51 2.33,-42.07 2.33,-64.01 -236.62,0 -473.3,3.55 -709.69,3.55l-77.01 -0c-10.06,-0.04 -15.07,1.25 -24.87,1.2 -271.86,-1.4 -541.06,3.55 -812.78,3.55 -0.18,-8.3 -18.75,-63.32 -21.18,-71.23l-48.88 -159.64c-1.77,-5.79 -4.01,-12.69 -5.52,-18.17 -3.47,-12.55 -7.99,-23.94 -10.91,-36.48l-341.22 0z"/>
   <path class="fil0" d="M1543.79 1909.75c0,13.26 2.55,35.46 5.44,46.69 10.57,41.04 27.1,74.11 56.46,103.48 4.29,4.29 8.49,9.13 13.23,12.83 5.27,4.11 9.27,7.73 14.67,11.4 21.48,14.61 47.31,28.52 72.8,33.83 17.19,3.58 31.28,5.66 44.95,6.21l14.99 0c13.06,-0.53 26.61,-2.46 42.98,-5.8 21.09,-4.3 52.57,-18.39 70.46,-31.43 22.38,-16.31 42.7,-34.47 57.6,-58.51l5.18 -7.85c3.76,-5.72 5.72,-11.26 9.04,-17.02 11.1,-19.26 21.1,-61.27 21.1,-81.97 0,-30.31 0.95,-36.76 -7.12,-67.52 -3.81,-14.52 -8.12,-25.78 -14.21,-37.92 -8,-15.95 -9.53,-18.83 -19.46,-32.67 -4.59,-6.4 -17.87,-22.56 -24.09,-28.04l-13.98 -12.08c-40.11,-29.89 -79.34,-48.05 -134.41,-48.05 -73.59,0 -140.36,38.41 -176.31,91.45 -7.07,10.43 -14.72,22.24 -19.87,34.63 -11.93,28.73 -19.46,55.4 -19.46,88.35z"/>
   <path class="fil0" d="M498.8 1906.2c0,22.36 0.93,34.58 6.16,55.44 3.43,13.69 7.54,26.58 13.58,38.55 3.01,5.97 5.62,11.94 8.74,17.33 36.12,62.37 106.76,106.66 180.05,106.66 41.32,0 83.27,-8.99 113.26,-28.92 5.8,-3.86 10.49,-5.87 16.07,-9.99 14.72,-10.87 35.73,-30.22 47.05,-45.36 2.09,-2.8 3.22,-4.61 5.4,-7.63 34.58,-47.62 46.52,-113.6 32.94,-171.39 -1.01,-4.29 -1.96,-5.86 -3.06,-9.97l-19.49 -46.86c-3.57,-5.91 -6.42,-11.24 -10.55,-16.7 -20.13,-26.59 -18.59,-23.4 -37.96,-41.42 -34.22,-31.84 -90.96,-50.65 -137.73,-50.65 -45,0 -78.86,12.03 -112.49,32.06 -2.83,1.68 -5.79,3.28 -8.86,5.36 -12.07,8.19 -19.73,16.7 -29.15,24.17 -5.82,4.62 -20.18,23 -24.52,28.79 -24.18,32.24 -39.43,79.76 -39.43,120.51z"/>
  </g>
 </g>
</svg>
