<?xml version="1.0" encoding="UTF-8"?>
<!DOCTYPE svg PUBLIC "-//W3C//DTD SVG 1.1//EN" "http://www.w3.org/Graphics/SVG/1.1/DTD/svg11.dtd">
<!-- Creator: CorelDRAW 2018 (64 Bit Versión de evaluación) -->
<svg xmlns="http://www.w3.org/2000/svg" xml:space="preserve" width="89.1715mm" height="74.6655mm" version="1.1" style="shape-rendering:geometricPrecision; text-rendering:geometricPrecision; image-rendering:optimizeQuality; fill-rule:evenodd; clip-rule:evenodd"
viewBox="0 0 15203.51 12730.27"
 xmlns:xlink="http://www.w3.org/1999/xlink">
 <defs>
  <style type="text/css">
   <![CDATA[
    .fil0 {fill:black}
   ]]>
  </style>
 </defs>
 <g id="Capa_x0020_1">
  <metadata id="CorelCorpID_0Corel-Layer"/>
  <g id="_2757228020976">
   <path class="fil0" d="M5506.18 8989.05l-185.98 -675.97c1054.85,-42.95 6080.53,-747.49 7707.85,-942.49 662.84,-79.43 868.6,-65.11 1040.85,-700.8 249.49,-920.72 498.98,-1854.5 762.6,-2755.44 704.94,-2408.51 912.6,-1998.38 -4131.03,-2010.39 -866.83,-2.05 -6619.22,45.85 -6941.14,-33.04 -231.02,-493.85 -166.51,-1491.75 -640.76,-1766.85 -283.2,-164.26 -1857.53,-84.38 -2306.39,-86.36 -1116.2,-4.74 -954.56,1040.73 -279.24,1128.2 1465.68,189.93 1782.26,-391.72 1965.14,419.76 579.06,2569.53 1256.7,5210.13 1901.01,7762.25 257.74,1020.94 516.47,809.96 1609.77,811.69l4803.37 8.3c471.61,1.91 2109.21,62.21 2452.78,-22.69 293.03,-72.36 487.71,-379.12 367.97,-758.3 -110.69,-350.56 -437.82,-354.26 -864.71,-352.33 -1064.4,4.81 -6643.7,30.14 -7262.08,-25.54z"/>
   <path class="fil0" d="M11724.24 10548.28c-1510.74,288.29 -1045.06,2438.47 394.24,2155.27 528.13,-103.97 957.72,-620.83 848.41,-1280.52 -89.32,-539.3 -624.58,-992.7 -1242.65,-874.75z"/>
   <path class="fil0" d="M5902.31 10602.19c-483.87,172.49 -912.08,732.24 -669.19,1404.13 165.25,457.04 724.41,877.38 1375.52,669.12 1363.23,-436.12 707.7,-2577.53 -706.34,-2073.25z"/>
  </g>
 </g>
</svg>
