<?xml version="1.0" encoding="UTF-8"?>
<!DOCTYPE svg PUBLIC "-//W3C//DTD SVG 1.1//EN" "http://www.w3.org/Graphics/SVG/1.1/DTD/svg11.dtd">
<!-- Creator: CorelDRAW 2018 (64 Bit Versión de evaluación) -->
<svg xmlns="http://www.w3.org/2000/svg" xml:space="preserve" width="100.397mm" height="101.456mm" version="1.1" style="shape-rendering:geometricPrecision; text-rendering:geometricPrecision; image-rendering:optimizeQuality; fill-rule:evenodd; clip-rule:evenodd"
viewBox="0 0 7612.86 7693.19"
 xmlns:xlink="http://www.w3.org/1999/xlink">
 <defs>
  <style type="text/css">
   <![CDATA[
    .fil0 {fill:#0D1213}
   ]]>
  </style>
 </defs>
 <g id="Capa_x0020_1">
  <metadata id="CorelCorpID_0Corel-Layer"/>
  <g id="_1198438683136">
   <path class="fil0" d="M2373.95 4099.32c-1838.22,715.67 -2638.25,2841.23 -2297.12,3335.51 228.61,331.28 806.29,233.97 1241.86,233.97l4350.78 0c1174.15,0 2175.07,254.43 1896.3,-880.64 -277.86,-1131.32 -899.92,-1913.9 -1864.07,-2485.53 -603.21,-357.63 -470.3,-249.88 -1016.87,-47.11 -613.11,227.39 -1203.06,220.43 -1812.64,-24.78 -240.77,-96.89 -270.36,-220.11 -498.23,-131.41z"/>
   <path class="fil0" d="M3392.91 48.46c-972.39,210.79 -1830.88,1167.34 -1555.85,2410.27 214.59,969.88 1175.32,1809.63 2410.22,1540.33 970.04,-211.54 1809.09,-1186.24 1539.26,-2408.67 -212.4,-962.28 -1184.32,-1804.01 -2393.63,-1541.94z"/>
  </g>
 </g>
</svg>
